<svg width="99" height="103" viewBox="0 0 99 103" fill="none" xmlns="http://www.w3.org/2000/svg">
<g filter="url(#filter0_dd_2552_394)">
<path d="M82.5751 62.6826C82.7774 62.1433 83.0734 61.6734 83.463 61.2727C83.8526 60.872 84.2983 60.5608 84.8002 60.339C85.3096 60.12 85.8471 59.9969 86.4127 59.9699C86.9829 59.9532 87.5489 60.0502 88.1106 60.261C88.6724 60.4717 89.1588 60.7696 89.5697 61.1545C89.9779 61.5469 90.298 61.9917 90.5301 62.489C90.7669 62.9965 90.8951 63.5316 90.9147 64.0944C90.9389 64.6674 90.8442 65.2386 90.6306 65.8078C90.3974 66.4295 90.0611 66.9613 89.6219 67.4031C89.1827 67.845 88.6746 68.1628 88.0978 68.3565L87.5503 67.1513C87.967 67.0428 88.3345 66.8261 88.653 66.5012C88.9789 66.1792 89.2261 65.7935 89.3948 65.3441C89.5971 64.8048 89.6557 64.2842 89.5706 63.7823C89.4902 63.2907 89.2824 62.8539 88.9473 62.4718C88.6122 62.0897 88.1675 61.7947 87.6132 61.5867C87.0589 61.3787 86.5262 61.307 86.0149 61.3715C85.5083 61.4463 85.0622 61.6335 84.6763 61.933C84.2905 62.2326 84.0048 62.6295 83.8193 63.1239C83.6226 63.6482 83.5476 64.1327 83.5943 64.5775C83.6458 65.0326 83.8208 65.4315 84.1194 65.7742C84.4255 66.1198 84.8557 66.3966 85.41 66.6045L84.5222 67.1942L85.7827 63.8349L86.9624 64.2776L85.5038 68.1649L85.324 68.0975C84.3877 67.7462 83.672 67.2854 83.1768 66.7151C82.6788 66.1522 82.3844 65.5248 82.2937 64.8329C82.203 64.1409 82.2968 63.4242 82.5751 62.6826Z" fill="white"/>
<path d="M80.0872 68.4271L86.916 73.3187L86.1124 74.4405L79.2835 69.549L80.0872 68.4271ZM79.5351 69.1978L80.5594 69.9315L77.8202 73.7557L76.7959 73.022L79.5351 69.1978ZM82.53 71.3431L83.5153 72.0489L81.0137 75.5413L80.0284 74.8356L82.53 71.3431ZM85.3396 73.3556L86.3639 74.0894L83.6596 77.8647L82.6353 77.131L85.3396 73.3556Z" fill="white"/>
<path d="M73.735 76.1794L79.1599 82.2749L78.1291 83.1924L72.7041 77.0968L73.735 76.1794ZM80.5256 79.694L81.3633 80.6353L76.2448 85.1906L75.4071 84.2494L80.5256 79.694Z" fill="white"/>
<path d="M64.8744 82.3397L68.3475 89.9881L67.091 90.5587L63.6179 82.9103L64.8744 82.3397Z" fill="white"/>
<path d="M60.2886 84.3636L62.1449 92.5559L61.2086 92.768L60.4489 91.316L58.9427 84.6685L60.2886 84.3636ZM54.6125 85.6497L60.9667 90.9403L61.2086 92.768L54.8544 87.4774L54.6125 85.6497ZM54.6125 85.6497L55.3483 86.9964L56.8784 93.7492L55.5325 94.0542L53.6762 85.8618L54.6125 85.6497Z" fill="white"/>
<path d="M44.5974 85.7535L43.3456 93.8169L41.9819 93.6052L43.2338 85.5418L44.5974 85.7535ZM46.2057 93.2287L46.0124 94.4738L39.2415 93.4226L39.4348 92.1776L46.2057 93.2287Z" fill="white"/>
<path d="M34.4247 82.7969C34.9737 83.0389 35.441 83.3672 35.8265 83.7818C36.212 84.1965 36.5051 84.6622 36.7058 85.179C36.9032 85.7031 36.9995 86.2483 36.9948 86.8145C36.9796 87.3847 36.8509 87.9444 36.609 88.4934C36.367 89.0425 36.0424 89.5114 35.635 89.9001C35.2204 90.2857 34.7583 90.5803 34.2488 90.7842C33.7288 90.9922 33.191 91.0917 32.6354 91.0829C32.0692 91.0782 31.5116 90.9549 30.9625 90.7129C30.4135 90.471 29.9498 90.1443 29.5716 89.7328C29.1829 89.3255 28.8898 88.8598 28.6924 88.3356C28.4918 87.8189 28.3991 87.2753 28.4143 86.7051C28.4191 86.1389 28.5424 85.5813 28.7843 85.0322C29.0263 84.4832 29.3562 84.0122 29.7741 83.6194C30.1815 83.2306 30.6435 82.9359 31.1603 82.7353C31.6698 82.5314 32.2076 82.4319 32.7738 82.4366C33.3326 82.4381 33.8829 82.5582 34.4247 82.7969ZM33.9143 84.0145C33.3946 83.7854 32.8891 83.7026 32.3978 83.7658C31.8993 83.8259 31.4499 84.0125 31.0496 84.3257C30.6388 84.643 30.314 85.0725 30.0753 85.6142C29.8978 86.0168 29.8024 86.4119 29.789 86.7994C29.7651 87.191 29.817 87.5592 29.9448 87.904C30.0694 88.2562 30.2637 88.5691 30.5277 88.8428C30.7845 89.1133 31.1068 89.334 31.4948 89.505C32.0073 89.7308 32.5128 89.8137 33.0113 89.7537C33.4993 89.6977 33.9471 89.5148 34.3547 89.2048C34.755 88.8916 35.0745 88.4642 35.3132 87.9224C35.4907 87.5198 35.593 87.119 35.6201 86.7201C35.6368 86.3253 35.5848 85.9571 35.4643 85.6155C35.3365 85.2707 35.1422 84.9577 34.8814 84.6767C34.6174 84.403 34.295 84.1822 33.9143 84.0145Z" fill="white"/>
<path d="M25.7354 77.3162C26.2166 77.726 26.5557 78.2039 26.7527 78.7499C26.9496 79.296 27 79.8537 26.9038 80.4233C26.7963 80.9937 26.5376 81.5195 26.1279 82.0007L22.7512 85.9657L21.7006 85.071L25.0695 81.1151C25.334 80.8045 25.5008 80.479 25.57 80.1386C25.628 79.7991 25.5987 79.4695 25.4823 79.1497C25.3607 78.8359 25.1598 78.5598 24.8796 78.3212C24.5933 78.0774 24.2887 77.923 23.9657 77.8581C23.6375 77.7993 23.3135 77.8281 22.9937 77.9445C22.6687 78.0671 22.3765 78.2806 22.1172 78.5851L18.7405 82.5501L17.6899 81.6554L21.0743 77.6812C21.4841 77.2001 21.9594 76.8641 22.5002 76.6732C23.0411 76.4823 23.5937 76.438 24.158 76.5403C24.7224 76.6426 25.2482 76.9013 25.7354 77.3162Z" fill="white"/>
<path d="M18.8199 69.4499C19.1667 69.9493 19.3997 70.4742 19.5189 71.0245C19.6269 71.5728 19.6295 72.1165 19.5265 72.6555C19.417 73.199 19.208 73.7045 18.8995 74.172C18.5844 74.644 18.1805 75.0511 17.6877 75.3933C17.1948 75.7355 16.6755 75.9695 16.1298 76.0953C15.5775 76.2256 15.0308 76.2448 14.4898 76.153C13.9488 76.0612 13.4403 75.8689 12.9642 75.5761C12.4836 75.2767 12.07 74.8773 11.7232 74.3779C11.3353 73.8194 11.0919 73.2725 10.993 72.7374C10.8941 72.2022 10.8928 71.6674 10.9892 71.133L12.2919 71.3679C12.21 71.7267 12.2092 72.0974 12.2897 72.4798C12.3656 72.8556 12.5382 73.2373 12.8074 73.625C13.0447 73.9667 13.3206 74.2378 13.635 74.4382C13.9495 74.6386 14.2915 74.7664 14.6609 74.8216C15.0192 74.8747 15.3883 74.8521 15.7681 74.754C16.148 74.6558 16.5186 74.4812 16.88 74.2302C17.2414 73.9793 17.5345 73.693 17.7592 73.3714C17.9839 73.0498 18.1372 72.7095 18.2192 72.3507C18.29 71.9898 18.2865 71.6271 18.2085 71.2624C18.1306 70.8977 17.973 70.5445 17.7357 70.2028C17.4437 69.7822 17.1349 69.4708 16.8092 69.2683C16.4725 69.0639 16.1217 68.9374 15.7568 68.8888L15.9917 67.5861C16.5327 67.678 17.0435 67.8736 17.5241 68.1729C18.0047 68.4723 18.4366 68.8979 18.8199 69.4499Z" fill="white"/>
<path d="M16.2154 65.2614L8.30733 68.0939L7.84199 66.7947L15.75 63.9622L16.2154 65.2614ZM14.4147 60.2342L6.50668 63.0667L6.04134 61.7675L13.9494 58.935L14.4147 60.2342ZM12.3936 65.6233L11.2074 66.0482L9.62522 61.631L10.8114 61.2061L12.3936 65.6233Z" fill="white"/>
<path d="M9.856 49.4988C9.856 49.7468 9.8 49.9668 9.688 50.1588C9.576 50.3508 9.424 50.5028 9.232 50.6148C9.032 50.7188 8.816 50.7708 8.584 50.7708C8.352 50.7708 8.14 50.7188 7.948 50.6148C7.756 50.5028 7.604 50.3508 7.492 50.1588C7.372 49.9668 7.312 49.7468 7.312 49.4988C7.312 49.2508 7.372 49.0348 7.492 48.8508C7.604 48.6588 7.756 48.5108 7.948 48.4068C8.14 48.2948 8.352 48.2388 8.584 48.2388C8.816 48.2388 9.032 48.2948 9.232 48.4068C9.424 48.5108 9.576 48.6588 9.688 48.8508C9.8 49.0348 9.856 49.2508 9.856 49.4988Z" fill="white"/>
<path d="M15.2643 37.7485C15.068 38.2901 14.7774 38.7634 14.3923 39.1684C14.0073 39.5734 13.5651 39.8897 13.0657 40.1171C12.5588 40.3418 12.0227 40.4709 11.4575 40.5043C10.8875 40.5275 10.3204 40.4369 9.75635 40.2324C9.19226 40.028 8.70257 39.7356 8.28729 39.3554C7.87473 38.9676 7.5496 38.5264 7.3119 38.0318C7.06941 37.527 6.93521 36.9933 6.90932 36.4308C6.87864 35.8581 6.96688 35.2859 7.17405 34.7143C7.4003 34.09 7.73053 33.5545 8.16475 33.1077C8.59897 32.661 9.10338 32.3375 9.67798 32.1373L10.239 33.3362C9.8236 33.4494 9.45851 33.6702 9.14377 33.9986C8.82152 34.3243 8.57861 34.7128 8.41506 35.1641C8.21879 35.7056 8.16604 36.2268 8.25679 36.7277C8.34275 37.2184 8.55544 37.6528 8.89486 38.0311C9.23427 38.4094 9.68226 38.6994 10.2388 38.9011C10.7954 39.1029 11.3289 39.1686 11.8394 39.0983C12.3451 39.0178 12.7892 38.8256 13.1716 38.5217C13.554 38.2179 13.8352 37.8177 14.0151 37.3213C14.2059 36.7948 14.2755 36.3095 14.2237 35.8653C14.1672 35.4108 13.9877 35.0139 13.6852 34.6745C13.3753 34.3324 12.942 34.0605 12.3854 33.8588L13.2665 33.2591L12.0439 36.6324L10.8593 36.2031L12.274 32.2996L12.4545 32.365C13.3947 32.7057 14.1156 33.1584 14.6172 33.7232C15.1215 34.2803 15.4229 34.9044 15.5214 35.5953C15.6199 36.2862 15.5342 37.0039 15.2643 37.7485Z" fill="white"/>
<path d="M17.6431 32.0129L10.761 27.1965L11.5523 26.0659L18.4344 30.8822L17.6431 32.0129ZM18.1867 31.2362L17.1543 30.5137L19.8515 26.6598L20.8838 27.3822L18.1867 31.2362ZM15.1684 29.1239L14.1754 28.4289L16.6386 24.9093L17.6316 25.6042L15.1684 29.1239ZM12.3369 27.1423L11.3046 26.4198L13.9673 22.615L14.9997 23.3375L12.3369 27.1423Z" fill="white"/>
<path d="M23.9599 24.105L18.4908 18.049L19.515 17.1241L24.9841 23.18L23.9599 24.105ZM17.144 20.6398L16.2995 19.7047L21.3847 15.1122L22.2292 16.0473L17.144 20.6398Z" fill="white"/>
<path d="M32.7983 17.8194L29.2684 10.1971L30.5207 9.6172L34.0506 17.2395L32.7983 17.8194Z" fill="white"/>
<path d="M37.2213 15.7904L35.2716 7.61978L36.2054 7.39695L36.9816 8.84021L38.5636 15.4701L37.2213 15.7904ZM42.8824 14.4395L36.4681 9.22181L36.2054 7.39695L42.6196 12.6147L42.8824 14.4395ZM42.8824 14.4395L42.1312 13.1013L40.5241 6.3664L41.8664 6.0461L43.8161 14.2167L42.8824 14.4395Z" fill="white"/>
<path d="M52.8862 14.1836L54.0452 6.10628L55.4112 6.30228L54.2522 14.3796L52.8862 14.1836ZM51.1921 6.72733L51.371 5.48011L58.1536 6.45332L57.9746 7.70054L51.1921 6.72733Z" fill="white"/>
<path d="M63.1673 17.0241C62.6164 16.7863 62.1467 16.4615 61.7581 16.0497C61.3695 15.6379 61.073 15.1744 60.8685 14.6591C60.6672 14.1365 60.5668 13.592 60.5672 13.0258C60.5783 12.4555 60.7027 11.8949 60.9405 11.344C61.1784 10.7932 61.4995 10.3219 61.904 9.93011C62.3157 9.54152 62.7756 9.24339 63.2835 9.03573C63.802 8.82389 64.3391 8.72031 64.8947 8.72497C65.4609 8.72546 66.0194 8.84463 66.5703 9.08248C67.1211 9.32033 67.5872 9.64356 67.9684 10.0522C68.3602 10.4566 68.6568 10.9201 68.8581 11.4428C69.0626 11.958 69.1593 12.5009 69.1483 13.0712C69.1478 13.6374 69.0286 14.196 68.7908 14.7468C68.5529 15.2976 68.2265 15.771 67.8116 16.167C67.4071 16.5587 66.9473 16.8569 66.432 17.0614C65.9241 17.269 65.387 17.3726 64.8208 17.3721C64.262 17.3748 63.7108 17.2588 63.1673 17.0241ZM63.6685 15.8028C64.19 16.0279 64.6961 16.107 65.1868 16.0401C65.6849 15.9763 66.1329 15.7863 66.5309 15.4702C66.9393 15.1499 67.2609 14.7179 67.4956 14.1745C67.67 13.7705 67.7624 13.3747 67.7729 12.9871C67.794 12.5954 67.7393 12.2276 67.6089 11.8837C67.4817 11.5325 67.2851 11.221 67.019 10.9493C66.7603 10.6807 66.4363 10.4624 66.047 10.2943C65.5329 10.0723 65.0268 9.99323 64.5287 10.057C64.0411 10.1166 63.5947 10.3029 63.1894 10.6159C62.7915 10.932 62.4752 11.3619 62.2405 11.9054C62.0661 12.3093 61.9668 12.7108 61.9426 13.1099C61.9289 13.5049 61.9836 13.8727 62.1066 14.2134C62.237 14.5572 62.4336 14.8687 62.6965 15.1478C62.9626 15.4195 63.2866 15.6378 63.6685 15.8028Z" fill="white"/>
<path d="M71.9029 22.3791C71.4173 21.9747 71.073 21.5005 70.8701 20.9566C70.6672 20.4128 70.6107 19.8556 70.7007 19.285C70.802 18.7134 71.0549 18.1848 71.4593 17.6992L74.7925 13.6976L75.8529 14.5808L72.5274 18.5732C72.2662 18.8867 72.1029 19.214 72.0375 19.5551C71.9833 19.8952 72.0161 20.2245 72.136 20.543C72.2611 20.8554 72.465 21.1294 72.7477 21.3649C73.0366 21.6055 73.3429 21.7566 73.6666 21.8179C73.9954 21.8732 74.3191 21.8408 74.6376 21.7209C74.9613 21.5949 75.2511 21.3782 75.5071 21.0708L78.8403 17.0692L79.9006 17.9524L76.5598 21.9633C76.1553 22.4489 75.6837 22.7901 75.1449 22.9868C74.6062 23.1836 74.0541 23.2339 73.4887 23.1378C72.9232 23.0416 72.3947 22.7888 71.9029 22.3791Z" fill="white"/>
<path d="M78.9787 30.2473C78.6283 29.7505 78.3915 29.2273 78.2683 28.6779C78.1562 28.1304 78.1497 27.5868 78.2487 27.047C78.3543 26.5027 78.5596 25.9957 78.8646 25.526C79.1762 25.0517 79.5772 24.6416 80.0675 24.2958C80.5578 23.95 81.0754 23.7122 81.6202 23.5825C82.1716 23.4481 82.7181 23.4249 83.2597 23.5128C83.8014 23.6006 84.3113 23.7892 84.7895 24.0785C85.2722 24.3743 85.6888 24.7707 86.0393 25.2675C86.4312 25.8232 86.6786 26.3683 86.7814 26.9027C86.8842 27.4371 86.8894 27.9719 86.7969 28.507L85.4925 28.2816C85.5719 27.9222 85.5699 27.5516 85.4866 27.1698C85.408 26.7945 85.2326 26.414 84.9606 26.0283C84.7208 25.6884 84.4429 25.4193 84.127 25.2212C83.811 25.0231 83.4682 24.8978 83.0983 24.8454C82.7397 24.7949 82.3708 24.8201 81.9917 24.9211C81.6125 25.0221 81.2432 25.1993 80.8836 25.4529C80.5241 25.7066 80.2331 25.995 80.0108 26.3182C79.7884 26.6415 79.6376 26.9828 79.5583 27.3422C79.4901 27.7036 79.4963 28.0663 79.5769 28.4304C79.6575 28.7945 79.8176 29.1466 80.0574 29.4865C80.3525 29.9049 80.6636 30.2142 80.9907 30.4142C81.329 30.6162 81.6807 30.7401 82.0459 30.786L81.8205 32.0904C81.2788 32.0025 80.7666 31.8106 80.2838 31.5148C79.8011 31.219 79.366 30.7965 78.9787 30.2473Z" fill="white"/>
<path d="M81.6463 34.4303L89.5328 31.5385L90.0079 32.8341L82.1214 35.7259L81.6463 34.4303ZM83.4847 39.4439L91.3712 36.552L91.8463 37.8477L83.9598 40.7395L83.4847 39.4439ZM85.4653 34.0397L86.6482 33.6059L88.2635 38.0111L87.0806 38.4449L85.4653 34.0397Z" fill="white"/>
<path d="M88.1467 49.8821C88.1429 49.6341 88.1955 49.4133 88.3045 49.2196C88.4135 49.0259 88.5631 48.8715 88.7534 48.7566C88.9517 48.6495 89.1669 48.5942 89.3989 48.5906C89.6309 48.587 89.8436 48.6357 90.0372 48.7368C90.2309 48.8458 90.3853 48.9954 90.5002 49.1857C90.6232 49.3758 90.6866 49.5948 90.6904 49.8428C90.6942 50.0908 90.6376 50.3077 90.5204 50.4935C90.4114 50.6872 90.2617 50.8376 90.0713 50.9445C89.8811 51.0595 89.67 51.1187 89.438 51.1223C89.206 51.1259 88.9892 51.0732 88.7875 50.9643C88.5939 50.8633 88.4396 50.7177 88.3247 50.5274C88.2098 50.3452 88.1505 50.1301 88.1467 49.8821Z" fill="white"/>
</g>
<defs>
<filter id="filter0_dd_2552_394" x="1.70605" y="5.4801" width="94.4385" height="96.9938" filterUnits="userSpaceOnUse" color-interpolation-filters="sRGB">
<feFlood flood-opacity="0" result="BackgroundImageFix"/>
<feColorMatrix in="SourceAlpha" type="matrix" values="0 0 0 0 0 0 0 0 0 0 0 0 0 0 0 0 0 0 127 0" result="hardAlpha"/>
<feOffset dy="4"/>
<feGaussianBlur stdDeviation="2"/>
<feComposite in2="hardAlpha" operator="out"/>
<feColorMatrix type="matrix" values="0 0 0 0 0 0 0 0 0 0 0 0 0 0 0 0 0 0 0.25 0"/>
<feBlend mode="normal" in2="BackgroundImageFix" result="effect1_dropShadow_2552_394"/>
<feColorMatrix in="SourceAlpha" type="matrix" values="0 0 0 0 0 0 0 0 0 0 0 0 0 0 0 0 0 0 127 0" result="hardAlpha"/>
<feOffset dy="4"/>
<feGaussianBlur stdDeviation="2"/>
<feComposite in2="hardAlpha" operator="out"/>
<feColorMatrix type="matrix" values="0 0 0 0 0 0 0 0 0 0 0 0 0 0 0 0 0 0 0.25 0"/>
<feBlend mode="normal" in2="effect1_dropShadow_2552_394" result="effect2_dropShadow_2552_394"/>
<feBlend mode="normal" in="SourceGraphic" in2="effect2_dropShadow_2552_394" result="shape"/>
</filter>
</defs>
</svg>
